<?xml version="1.0" standalone="no"?>
<!DOCTYPE svg PUBLIC "-//W3C//DTD SVG 20010904//EN"
 "http://www.w3.org/TR/2001/REC-SVG-20010904/DTD/svg10.dtd">
<svg version="1.0" xmlns="http://www.w3.org/2000/svg"
 width="340.000000pt" height="270.000000pt" viewBox="0 0 340.000000 270.000000"
 preserveAspectRatio="xMidYMid meet">

<g transform="translate(0.000000,270.000000) scale(0.100000,-0.100000)"
fill="#FFFFFF" stroke="none">
<path d="M1507 2234 c-179 -39 -314 -112 -442 -239 -49 -49 -105 -116 -124
-147 -149 -255 -149 -556 0 -804 42 -70 134 -172 198 -218 l48 -36 -83 -162
c-46 -90 -83 -166 -84 -170 0 -5 306 -8 680 -8 374 0 680 3 680 7 0 3 -38 79
-84 168 l-85 161 72 60 c85 70 164 171 212 269 110 226 97 504 -33 722 -117
198 -334 348 -576 397 -97 20 -286 20 -379 0z m306 -169 c137 -29 262 -123
322 -241 28 -55 30 -67 30 -169 0 -102 -2 -114 -29 -165 -16 -30 -39 -68 -53
-84 -30 -36 -114 -106 -128 -106 -6 0 -48 73 -94 163 -46 89 -98 187 -114 217
-28 51 -29 55 -12 65 70 39 84 94 38 145 -41 43 -105 45 -147 4 -45 -45 -28
-122 31 -145 l24 -9 -112 -217 c-62 -120 -113 -220 -115 -222 -2 -2 -26 13
-53 33 -202 148 -222 429 -44 604 63 61 151 108 237 127 81 18 137 18 219 0z
m107 -762 c113 -217 255 -492 316 -609 61 -118 109 -216 106 -219 -8 -7 -1255
-5 -1273 3 -13 6 43 119 300 614 205 395 321 608 331 608 10 0 89 -144 220
-397z"/>
<path d="M1685 1263 c-4 -235 -10 -466 -14 -512 l-6 -84 -265 -83 c-372 -118
-370 -119 32 -21 l267 65 302 -74 c166 -41 303 -73 305 -72 1 2 -126 44 -283
93 -228 72 -287 94 -293 110 -4 11 -10 200 -14 420 -6 355 -14 575 -21 583 -1
1 -6 -190 -10 -425z"/>
</g>
</svg>
